<?xml version="1.0" encoding="UTF-8" standalone="no"?>
<!-- Created with Inkscape (http://www.inkscape.org/) -->

<svg
   width="76.525536mm"
   height="76.525536mm"
   viewBox="0 0 76.525536 76.525536"
   version="1.1"
   id="svg5"
   inkscape:version="1.2.1 (9c6d41e410, 2022-07-14)"
   sodipodi:docname="camweb.svg"
   xmlns:inkscape="http://www.inkscape.org/namespaces/inkscape"
   xmlns:sodipodi="http://sodipodi.sourceforge.net/DTD/sodipodi-0.dtd"
   xmlns="http://www.w3.org/2000/svg"
   xmlns:svg="http://www.w3.org/2000/svg">
  <sodipodi:namedview
     id="namedview7"
     pagecolor="#505050"
     bordercolor="#ffffff"
     borderopacity="1"
     inkscape:showpageshadow="0"
     inkscape:pageopacity="0"
     inkscape:pagecheckerboard="1"
     inkscape:deskcolor="#505050"
     inkscape:document-units="mm"
     showgrid="false"
     inkscape:zoom="1.5215769"
     inkscape:cx="206.03625"
     inkscape:cy="83.137436"
     inkscape:window-width="1353"
     inkscape:window-height="1340"
     inkscape:window-x="946"
     inkscape:window-y="10"
     inkscape:window-maximized="0"
     inkscape:current-layer="layer1" />
  <defs
     id="defs2" />
  <g
     inkscape:label="Calque 1"
     inkscape:groupmode="layer"
     id="layer1"
     transform="translate(-70.243082,-102.93393)">
    <circle
       style="fill:none;stroke:#e7e9f5;stroke-width:1.05833;stroke-dasharray:none;stroke-opacity:1"
       id="path111"
       cx="108.50585"
       cy="141.1967"
       r="37.733604" />
    <circle
       style="fill:none;stroke:#e7e9f5;stroke-width:1.05833;stroke-dasharray:none;stroke-opacity:1"
       id="path2459"
       cx="108.50585"
       cy="141.1967"
       r="27.265762" />
    <path
       id="path2459-9"
       style="fill:#e7e9f5;fill-opacity:1;stroke:none;stroke-width:0.887307;stroke-dasharray:none;stroke-opacity:1"
       d="m 108.50604,118.21397 a 22.73707,22.982985 0 0 0 -22.737115,22.98258 22.73707,22.982985 0 0 0 22.737115,22.98309 22.73707,22.982985 0 0 0 22.73711,-22.98309 22.73707,22.982985 0 0 0 -22.73711,-22.98258 z m 0.17363,19.17764 a 3.248153,3.2832835 0 0 1 3.24838,3.28352 3.248153,3.2832835 0 0 1 -3.24838,3.28301 3.248153,3.2832835 0 0 1 -3.24786,-3.28301 3.248153,3.2832835 0 0 1 3.24786,-3.28352 z" />
  </g>
</svg>
